<svg width="21" height="37" viewBox="0 0 21 37" fill="none" xmlns="http://www.w3.org/2000/svg">
<mask id="mask0_1153_408" style="mask-type:luminance" maskUnits="userSpaceOnUse" x="7" y="10" width="10" height="4">
<path d="M7.19873 10.2472C7.19873 10.2472 9.13415 12.9548 11.2401 13.6517C11.2401 13.6517 15.2513 12.9899 16.1588 11.6862C16.1588 11.6862 13.2156 12.1024 12.1877 10.7085C12.1877 10.7085 10.5782 10.3324 9.16424 10.167C8.30182 10.0667 7.51462 10.0466 7.20374 10.2422" fill="white"/>
</mask>
<g mask="url(#mask0_1153_408)">
<path d="M7.23347 9.95074L6.86572 13.1487L15.8668 14.1838L16.2345 10.9858L7.23347 9.95074Z" fill="url(#paint0_linear_1153_408)"/>
</g>
<mask id="mask1_1153_408" style="mask-type:luminance" maskUnits="userSpaceOnUse" x="1" y="15" width="20" height="6">
<path d="M11.3653 15.9583C11.3653 15.9583 2.21968 15.848 1.979 16.4998C1.979 16.4998 10.0065 20.7116 16.4596 20.5461C16.4596 20.5461 19.9443 17.4224 20.1299 16.7254C20.1299 16.7254 15.1158 18.1244 11.3603 15.9533" fill="white"/>
</mask>
<g mask="url(#mask1_1153_408)">
<path d="M2.19317 14.6714L1.60889 19.7523L19.5512 21.8156L20.1355 16.7347L2.19317 14.6714Z" fill="url(#paint1_linear_1153_408)"/>
</g>
<mask id="mask2_1153_408" style="mask-type:luminance" maskUnits="userSpaceOnUse" x="0" y="19" width="12" height="3">
<path d="M0.86084 19.4831C4.68656 21.7394 11.0394 21.218 11.0394 21.218C8.31171 20.1299 6.09049 19.6486 4.42081 19.453C2.09931 19.1873 0.86084 19.4831 0.86084 19.4831Z" fill="white"/>
</mask>
<g mask="url(#mask2_1153_408)">
<path d="M0.908396 19.0546L0.652344 21.2812L10.8937 22.4589L11.1498 20.2323L0.908396 19.0546Z" fill="url(#paint2_linear_1153_408)"/>
</g>
<mask id="mask3_1153_408" style="mask-type:luminance" maskUnits="userSpaceOnUse" x="9" y="22" width="11" height="6">
<path d="M9.83594 24.3217C15.7274 26.2972 16.1185 27.2299 16.1185 27.2299C18.1342 27.3552 19.3576 25.0187 19.3576 25.0187C17.9537 23.8755 15.4015 22.7573 15.4015 22.7573L9.83594 24.3217Z" fill="white"/>
</mask>
<g mask="url(#mask3_1153_408)">
<path d="M10.0838 22.1481L9.58545 26.4818L19.0597 27.5713L19.5581 23.2376L10.0838 22.1481Z" fill="url(#paint3_linear_1153_408)"/>
</g>
<mask id="mask4_1153_408" style="mask-type:luminance" maskUnits="userSpaceOnUse" x="0" y="25" width="10" height="4">
<path d="M0.605469 28.4682C1.53808 28.0571 9.67588 27.4153 9.67588 27.4153C8.01623 26.5579 6.64238 26.1467 5.51422 26.0164C1.63836 25.5701 0.605469 28.4682 0.605469 28.4682Z" fill="white"/>
</mask>
<g mask="url(#mask4_1153_408)">
<path d="M0.947528 25.4938L0.60498 28.4725L9.43668 29.4881L9.77923 26.5094L0.947528 25.4938Z" fill="url(#paint4_linear_1153_408)"/>
</g>
<mask id="mask5_1153_408" style="mask-type:luminance" maskUnits="userSpaceOnUse" x="6" y="29" width="9" height="5">
<path d="M6.15088 29.7118C6.15088 29.7118 11.0195 31.3714 11.9672 33.6428C11.9672 33.6428 14.6848 33.1113 14.8853 32.3442C14.8853 32.3442 13.5767 29.9775 11.9571 29.0549C11.9571 29.0549 6.26119 29.1352 6.15589 29.7068" fill="white"/>
</mask>
<g mask="url(#mask5_1153_408)">
<path d="M6.30186 28.4131L5.78174 32.936L14.6981 33.9614L15.2182 29.4384L6.30186 28.4131Z" fill="url(#paint5_linear_1153_408)"/>
</g>
<mask id="mask6_1153_408" style="mask-type:luminance" maskUnits="userSpaceOnUse" x="3" y="32" width="7" height="3">
<path d="M6.20073 32.4445C3.75388 32.8556 3.56836 34.8412 3.56836 34.8412C5.24806 34.1492 9.68048 33.7531 9.68048 33.7531C9.68048 33.7531 8.11109 32.5999 6.76231 32.4445C6.56676 32.4244 6.37623 32.4194 6.19572 32.4445" fill="white"/>
</mask>
<g mask="url(#mask6_1153_408)">
<path d="M3.83734 32.1114L3.52344 34.8411L9.47599 35.5256L9.7899 32.7959L3.83734 32.1114Z" fill="url(#paint6_linear_1153_408)"/>
</g>
<mask id="mask7_1153_408" style="mask-type:luminance" maskUnits="userSpaceOnUse" x="7" y="9" width="8" height="3">
<path d="M7.19886 10.2472C10.6235 13.3559 14.5645 9.58036 14.5645 9.58036C14.043 9.39986 13.5166 9.28955 12.9901 9.22938C9.99168 8.88341 7.19385 10.2472 7.19385 10.2472" fill="white"/>
</mask>
<g mask="url(#mask7_1153_408)">
<path d="M7.38614 8.58635L6.88721 12.925L14.0851 13.7527L14.584 9.41408L7.38614 8.58635Z" fill="url(#paint7_linear_1153_408)"/>
</g>
<mask id="mask8_1153_408" style="mask-type:luminance" maskUnits="userSpaceOnUse" x="1" y="10" width="18" height="8">
<path d="M4.29549 12.5286C4.29549 12.5286 2.06424 15.5772 1.979 16.4998C1.979 16.4998 12.9648 19.1021 18.746 13.5415C18.746 13.5415 18.3198 12.1927 16.7454 10.8489C16.7454 10.8489 10.7536 15.7777 4.29549 12.5286Z" fill="white"/>
</mask>
<g mask="url(#mask8_1153_408)">
<path d="M2.79841 9.2479L1.81201 17.8256L18.0508 19.693L19.0372 11.1153L2.79841 9.2479Z" fill="url(#paint8_linear_1153_408)"/>
</g>
<mask id="mask9_1153_408" style="mask-type:luminance" maskUnits="userSpaceOnUse" x="0" y="16" width="21" height="9">
<path d="M0.860956 19.4831C0.860956 19.4831 0.244229 21.1628 0.269299 23.2436C0.269299 23.2436 11.5359 28.4632 20.521 19.9945C20.521 19.9945 20.6564 17.9688 20.14 16.7303C20.14 16.7303 13.8925 24.3266 0.86597 19.4881" fill="white"/>
</mask>
<g mask="url(#mask9_1153_408)">
<path d="M1.00756 14.5283L-0.436523 27.0859L19.4385 29.3715L20.8826 16.8138L1.00756 14.5283Z" fill="url(#paint9_linear_1153_408)"/>
</g>
<mask id="mask10_1153_408" style="mask-type:luminance" maskUnits="userSpaceOnUse" x="0" y="25" width="20" height="7">
<path d="M10.9143 27.3501C3.83953 26.8588 0.956452 27.666 0.605469 28.4683C0.605469 28.4683 0.99155 30.7497 1.80383 31.8828C1.80383 31.8828 2.58602 29.5714 9.68089 30.2282C14.6699 30.5441 17.1568 28.3981 17.1568 28.3981C17.1568 28.3981 19.5736 25.7256 19.363 25.0186C19.363 25.0186 17.9992 27.8465 10.9244 27.3552" fill="white"/>
</mask>
<g mask="url(#mask10_1153_408)">
<path d="M1.24157 22.9387L0.233398 31.7057L18.634 33.8217L19.6422 25.0548L1.24157 22.9387Z" fill="url(#paint10_linear_1153_408)"/>
</g>
<mask id="mask11_1153_408" style="mask-type:luminance" maskUnits="userSpaceOnUse" x="3" y="32" width="12" height="5">
<path d="M9.74566 33.2818C7.15842 32.9208 4.89708 33.1464 3.56836 34.8412C3.56836 34.8412 4.98733 36.5961 5.95003 36.9621C5.95003 36.9621 7.08822 35.7938 9.09384 36.1548C11.0944 36.5159 12.4934 36.4808 13.2906 35.7287C14.0377 35.0267 14.5692 34.1893 14.88 32.3442C14.88 32.3442 12.3329 33.6378 9.74566 33.2768" fill="white"/>
</mask>
<g mask="url(#mask11_1153_408)">
<path d="M3.99735 31.1006L3.35693 36.6696L14.2359 37.9207L14.8763 32.3517L3.99735 31.1006Z" fill="url(#paint11_linear_1153_408)"/>
</g>
<mask id="mask12_1153_408" style="mask-type:luminance" maskUnits="userSpaceOnUse" x="9" y="2" width="3" height="8">
<path d="M9.97665 2.53566C9.97665 2.53566 9.80116 4.21537 9.84629 4.66162C9.89141 5.10285 10.5533 6.39647 10.3978 7.75528C10.2424 9.11409 9.90645 9.33471 9.90645 9.33471C10.6285 9.67566 11.6263 9.15922 11.6263 9.15922C11.6263 9.15922 11.7867 7.60486 11.6564 7.06836C11.3756 6.42155 11.0396 4.70674 10.9243 4.21537C10.809 3.72399 10.9644 2.63093 10.9644 2.63093C10.804 2.4805 10.6435 2.42034 10.4981 2.40028C10.2023 2.36519 9.97164 2.52563 9.97164 2.52563" fill="white"/>
</mask>
<g mask="url(#mask12_1153_408)">
<path d="M12.3505 2.20053L8.71289 2.4364L9.19955 9.94171L12.8371 9.70584L12.3505 2.20053Z" fill="url(#paint12_linear_1153_408)"/>
</g>
<mask id="mask13_1153_408" style="mask-type:luminance" maskUnits="userSpaceOnUse" x="11" y="0" width="5" height="7">
<path d="M11.7215 6.98807C16.5099 4.5011 15.467 0.189026 15.467 0.189026C10.819 2.13949 11.7215 6.98807 11.7215 6.98807Z" fill="white"/>
</mask>
<g mask="url(#mask13_1153_408)">
<path d="M16.671 -1.32669L9.04443 0.0606689L10.5825 8.51598L18.2091 7.12863L16.671 -1.32669Z" fill="url(#paint13_linear_1153_408)"/>
</g>
<mask id="mask14_1153_408" style="mask-type:luminance" maskUnits="userSpaceOnUse" x="6" y="2" width="5" height="5">
<path d="M6.02539 2.68604C7.08837 6.23097 10.1269 6.08055 10.1269 6.08055C9.54525 3.32784 7.18865 2.80637 6.33626 2.71111C6.14071 2.69105 6.02539 2.69105 6.02539 2.69105" fill="white"/>
</mask>
<g mask="url(#mask14_1153_408)">
<path d="M6.02535 2.67255L5.63525 6.06476L10.0636 6.574L10.4536 3.18179L6.02535 2.67255Z" fill="url(#paint14_linear_1153_408)"/>
</g>
<defs>
<linearGradient id="paint0_linear_1153_408" x1="7.55854" y1="12.338" x2="16.5701" y2="13.3743" gradientUnits="userSpaceOnUse">
<stop stop-color="#FF7F02"/>
<stop offset="1" stop-color="#FF7702"/>
</linearGradient>
<linearGradient id="paint1_linear_1153_408" x1="1.39928" y1="16.4241" x2="19.2136" y2="18.4727" gradientUnits="userSpaceOnUse">
<stop stop-color="#FF7F02"/>
<stop offset="1" stop-color="#FF7702"/>
</linearGradient>
<linearGradient id="paint2_linear_1153_408" x1="0.287493" y1="19.3496" x2="10.4542" y2="20.5187" gradientUnits="userSpaceOnUse">
<stop stop-color="#FF7F02"/>
<stop offset="1" stop-color="#FF7702"/>
</linearGradient>
<linearGradient id="paint3_linear_1153_408" x1="10.1986" y1="24.9046" x2="19.68" y2="25.9949" gradientUnits="userSpaceOnUse">
<stop stop-color="#FF7F02"/>
<stop offset="1" stop-color="#FF7702"/>
</linearGradient>
<linearGradient id="paint4_linear_1153_408" x1="0.103115" y1="25.9733" x2="8.9385" y2="26.9894" gradientUnits="userSpaceOnUse">
<stop stop-color="#FF7F02"/>
<stop offset="1" stop-color="#FF7702"/>
</linearGradient>
<linearGradient id="paint5_linear_1153_408" x1="6.56628" y1="31.4998" x2="15.493" y2="32.5264" gradientUnits="userSpaceOnUse">
<stop stop-color="#FF7F02"/>
<stop offset="1" stop-color="#FF7702"/>
</linearGradient>
<linearGradient id="paint6_linear_1153_408" x1="3.40869" y1="32.9555" x2="9.3207" y2="33.6353" gradientUnits="userSpaceOnUse">
<stop stop-color="#FF7F02"/>
<stop offset="1" stop-color="#FF7702"/>
</linearGradient>
<linearGradient id="paint7_linear_1153_408" x1="6.62375" y1="9.96425" x2="13.8213" y2="10.7919" gradientUnits="userSpaceOnUse">
<stop stop-color="#FFF80A"/>
<stop offset="1" stop-color="#FF7702"/>
</linearGradient>
<linearGradient id="paint8_linear_1153_408" x1="3.00226" y1="14.5431" x2="19.2309" y2="16.4094" gradientUnits="userSpaceOnUse">
<stop stop-color="#FFF80A"/>
<stop offset="1" stop-color="#FF7702"/>
</linearGradient>
<linearGradient id="paint9_linear_1153_408" x1="0.386467" y1="20.7307" x2="20.0997" y2="22.9977" gradientUnits="userSpaceOnUse">
<stop stop-color="#FFF80A"/>
<stop offset="1" stop-color="#FF7702"/>
</linearGradient>
<linearGradient id="paint10_linear_1153_408" x1="0.922023" y1="27.5792" x2="19.0757" y2="29.6668" gradientUnits="userSpaceOnUse">
<stop stop-color="#FFF80A"/>
<stop offset="1" stop-color="#FF7702"/>
</linearGradient>
<linearGradient id="paint11_linear_1153_408" x1="4.20293" y1="34.6678" x2="15.0938" y2="35.9202" gradientUnits="userSpaceOnUse">
<stop stop-color="#FFF80A"/>
<stop offset="1" stop-color="#FF7702"/>
</linearGradient>
<linearGradient id="paint12_linear_1153_408" x1="11.4345" y1="8.71711" x2="11.0443" y2="2.69996" gradientUnits="userSpaceOnUse">
<stop stop-color="#BD6E29"/>
<stop offset="1" stop-color="#603815"/>
</linearGradient>
<linearGradient id="paint13_linear_1153_408" x1="10.732" y1="3.63729" x2="15.5594" y2="2.75914" gradientUnits="userSpaceOnUse">
<stop stop-color="#A9F80A"/>
<stop offset="1" stop-color="#079445"/>
</linearGradient>
<linearGradient id="paint14_linear_1153_408" x1="5.38525" y1="3.54663" x2="9.78217" y2="4.05226" gradientUnits="userSpaceOnUse">
<stop stop-color="#A9F80A"/>
<stop offset="1" stop-color="#079445"/>
</linearGradient>
</defs>
</svg>
