<svg width="179" height="37" viewBox="0 0 179 37" fill="none" xmlns="http://www.w3.org/2000/svg">
<g id="logo">
<g id="Group">
<g id="Group_2">
<g id="Clip path group">
<mask id="mask0_1153_496" style="mask-type:luminance" maskUnits="userSpaceOnUse" x="7" y="10" width="10" height="4">
<g id="clippath">
<path id="Vector" d="M7.19873 10.2472C7.19873 10.2472 9.13415 12.9548 11.2401 13.6517C11.2401 13.6517 15.2513 12.9899 16.1588 11.6862C16.1588 11.6862 13.2156 12.1024 12.1877 10.7085C12.1877 10.7085 10.5782 10.3324 9.16424 10.167C8.30182 10.0667 7.51462 10.0466 7.20374 10.2422" fill="white"/>
</g>
</mask>
<g mask="url(#mask0_1153_496)">
<g id="Group_3">
<path id="Vector_2" d="M7.23347 9.95074L6.86572 13.1487L15.8668 14.1838L16.2345 10.9858L7.23347 9.95074Z" fill="url(#paint0_linear_1153_496)"/>
</g>
</g>
</g>
<g id="Clip path group_2">
<mask id="mask1_1153_496" style="mask-type:luminance" maskUnits="userSpaceOnUse" x="1" y="15" width="20" height="6">
<g id="clippath-1">
<path id="Vector_3" d="M11.3653 15.9583C11.3653 15.9583 2.21968 15.848 1.979 16.4998C1.979 16.4998 10.0065 20.7116 16.4596 20.5461C16.4596 20.5461 19.9443 17.4224 20.1299 16.7254C20.1299 16.7254 15.1158 18.1244 11.3603 15.9533" fill="white"/>
</g>
</mask>
<g mask="url(#mask1_1153_496)">
<g id="Group_4">
<path id="Vector_4" d="M2.19317 14.6714L1.60889 19.7523L19.5512 21.8156L20.1355 16.7347L2.19317 14.6714Z" fill="url(#paint1_linear_1153_496)"/>
</g>
</g>
</g>
<g id="Clip path group_3">
<mask id="mask2_1153_496" style="mask-type:luminance" maskUnits="userSpaceOnUse" x="0" y="19" width="12" height="3">
<g id="clippath-2">
<path id="Vector_5" d="M0.86084 19.4831C4.68656 21.7394 11.0394 21.218 11.0394 21.218C8.31171 20.1299 6.09049 19.6486 4.42081 19.453C2.09931 19.1873 0.86084 19.4831 0.86084 19.4831Z" fill="white"/>
</g>
</mask>
<g mask="url(#mask2_1153_496)">
<g id="Group_5">
<path id="Vector_6" d="M0.908396 19.0546L0.652344 21.2812L10.8937 22.4589L11.1498 20.2323L0.908396 19.0546Z" fill="url(#paint2_linear_1153_496)"/>
</g>
</g>
</g>
<g id="Clip path group_4">
<mask id="mask3_1153_496" style="mask-type:luminance" maskUnits="userSpaceOnUse" x="9" y="22" width="11" height="6">
<g id="clippath-3">
<path id="Vector_7" d="M9.83594 24.3217C15.7274 26.2972 16.1185 27.2299 16.1185 27.2299C18.1342 27.3552 19.3576 25.0187 19.3576 25.0187C17.9537 23.8755 15.4015 22.7573 15.4015 22.7573L9.83594 24.3217Z" fill="white"/>
</g>
</mask>
<g mask="url(#mask3_1153_496)">
<g id="Group_6">
<path id="Vector_8" d="M10.0838 22.1481L9.58545 26.4818L19.0597 27.5713L19.5581 23.2376L10.0838 22.1481Z" fill="url(#paint3_linear_1153_496)"/>
</g>
</g>
</g>
<g id="Clip path group_5">
<mask id="mask4_1153_496" style="mask-type:luminance" maskUnits="userSpaceOnUse" x="0" y="25" width="10" height="4">
<g id="clippath-4">
<path id="Vector_9" d="M0.605469 28.4682C1.53808 28.0571 9.67588 27.4153 9.67588 27.4153C8.01623 26.5579 6.64238 26.1467 5.51422 26.0164C1.63836 25.5701 0.605469 28.4682 0.605469 28.4682Z" fill="white"/>
</g>
</mask>
<g mask="url(#mask4_1153_496)">
<g id="Group_7">
<path id="Vector_10" d="M0.947528 25.4938L0.60498 28.4725L9.43668 29.4881L9.77923 26.5094L0.947528 25.4938Z" fill="url(#paint4_linear_1153_496)"/>
</g>
</g>
</g>
<g id="Clip path group_6">
<mask id="mask5_1153_496" style="mask-type:luminance" maskUnits="userSpaceOnUse" x="6" y="29" width="9" height="5">
<g id="clippath-5">
<path id="Vector_11" d="M6.15088 29.7118C6.15088 29.7118 11.0195 31.3714 11.9672 33.6428C11.9672 33.6428 14.6848 33.1113 14.8853 32.3442C14.8853 32.3442 13.5767 29.9775 11.9571 29.0549C11.9571 29.0549 6.26119 29.1352 6.15589 29.7068" fill="white"/>
</g>
</mask>
<g mask="url(#mask5_1153_496)">
<g id="Group_8">
<path id="Vector_12" d="M6.30186 28.4131L5.78174 32.936L14.6981 33.9614L15.2182 29.4384L6.30186 28.4131Z" fill="url(#paint5_linear_1153_496)"/>
</g>
</g>
</g>
<g id="Clip path group_7">
<mask id="mask6_1153_496" style="mask-type:luminance" maskUnits="userSpaceOnUse" x="3" y="32" width="7" height="3">
<g id="clippath-6">
<path id="Vector_13" d="M6.20073 32.4445C3.75388 32.8556 3.56836 34.8412 3.56836 34.8412C5.24806 34.1492 9.68048 33.7531 9.68048 33.7531C9.68048 33.7531 8.11109 32.5999 6.76231 32.4445C6.56676 32.4244 6.37623 32.4194 6.19572 32.4445" fill="white"/>
</g>
</mask>
<g mask="url(#mask6_1153_496)">
<g id="Group_9">
<path id="Vector_14" d="M3.83734 32.1114L3.52344 34.8411L9.47599 35.5256L9.7899 32.7959L3.83734 32.1114Z" fill="url(#paint6_linear_1153_496)"/>
</g>
</g>
</g>
<g id="Clip path group_8">
<mask id="mask7_1153_496" style="mask-type:luminance" maskUnits="userSpaceOnUse" x="7" y="9" width="8" height="3">
<g id="clippath-7">
<path id="Vector_15" d="M7.19886 10.2472C10.6235 13.3559 14.5645 9.58036 14.5645 9.58036C14.043 9.39986 13.5166 9.28955 12.9901 9.22938C9.99168 8.88341 7.19385 10.2472 7.19385 10.2472" fill="white"/>
</g>
</mask>
<g mask="url(#mask7_1153_496)">
<g id="Group_10">
<path id="Vector_16" d="M7.38614 8.58635L6.88721 12.925L14.0851 13.7527L14.584 9.41408L7.38614 8.58635Z" fill="url(#paint7_linear_1153_496)"/>
</g>
</g>
</g>
<g id="Clip path group_9">
<mask id="mask8_1153_496" style="mask-type:luminance" maskUnits="userSpaceOnUse" x="1" y="10" width="18" height="8">
<g id="clippath-8">
<path id="Vector_17" d="M4.29549 12.5286C4.29549 12.5286 2.06424 15.5772 1.979 16.4998C1.979 16.4998 12.9648 19.1021 18.746 13.5415C18.746 13.5415 18.3198 12.1927 16.7454 10.8489C16.7454 10.8489 10.7536 15.7777 4.29549 12.5286Z" fill="white"/>
</g>
</mask>
<g mask="url(#mask8_1153_496)">
<g id="Group_11">
<path id="Vector_18" d="M2.79841 9.2479L1.81201 17.8256L18.0508 19.693L19.0372 11.1153L2.79841 9.2479Z" fill="url(#paint8_linear_1153_496)"/>
</g>
</g>
</g>
<g id="Clip path group_10">
<mask id="mask9_1153_496" style="mask-type:luminance" maskUnits="userSpaceOnUse" x="0" y="16" width="21" height="9">
<g id="clippath-9">
<path id="Vector_19" d="M0.860956 19.4831C0.860956 19.4831 0.244229 21.1628 0.269299 23.2436C0.269299 23.2436 11.5359 28.4632 20.521 19.9945C20.521 19.9945 20.6564 17.9688 20.14 16.7303C20.14 16.7303 13.8925 24.3266 0.86597 19.4881" fill="white"/>
</g>
</mask>
<g mask="url(#mask9_1153_496)">
<g id="Group_12">
<path id="Vector_20" d="M1.00756 14.5283L-0.436523 27.0859L19.4385 29.3715L20.8826 16.8138L1.00756 14.5283Z" fill="url(#paint9_linear_1153_496)"/>
</g>
</g>
</g>
<g id="Clip path group_11">
<mask id="mask10_1153_496" style="mask-type:luminance" maskUnits="userSpaceOnUse" x="0" y="25" width="20" height="7">
<g id="clippath-10">
<path id="Vector_21" d="M10.9143 27.3501C3.83953 26.8588 0.956452 27.666 0.605469 28.4683C0.605469 28.4683 0.99155 30.7497 1.80383 31.8828C1.80383 31.8828 2.58602 29.5714 9.68089 30.2282C14.6699 30.5441 17.1568 28.3981 17.1568 28.3981C17.1568 28.3981 19.5736 25.7256 19.363 25.0186C19.363 25.0186 17.9992 27.8465 10.9244 27.3552" fill="white"/>
</g>
</mask>
<g mask="url(#mask10_1153_496)">
<g id="Group_13">
<path id="Vector_22" d="M1.24157 22.9387L0.233398 31.7057L18.634 33.8217L19.6422 25.0548L1.24157 22.9387Z" fill="url(#paint10_linear_1153_496)"/>
</g>
</g>
</g>
<g id="Clip path group_12">
<mask id="mask11_1153_496" style="mask-type:luminance" maskUnits="userSpaceOnUse" x="3" y="32" width="12" height="5">
<g id="clippath-11">
<path id="Vector_23" d="M9.74566 33.2818C7.15842 32.9208 4.89708 33.1464 3.56836 34.8412C3.56836 34.8412 4.98733 36.5961 5.95003 36.9621C5.95003 36.9621 7.08822 35.7938 9.09384 36.1548C11.0944 36.5159 12.4934 36.4808 13.2906 35.7287C14.0377 35.0267 14.5692 34.1893 14.88 32.3442C14.88 32.3442 12.3329 33.6378 9.74566 33.2768" fill="white"/>
</g>
</mask>
<g mask="url(#mask11_1153_496)">
<g id="Group_14">
<path id="Vector_24" d="M3.99735 31.1006L3.35693 36.6696L14.2359 37.9207L14.8763 32.3517L3.99735 31.1006Z" fill="url(#paint11_linear_1153_496)"/>
</g>
</g>
</g>
<g id="Clip path group_13">
<mask id="mask12_1153_496" style="mask-type:luminance" maskUnits="userSpaceOnUse" x="9" y="2" width="3" height="8">
<g id="clippath-12">
<path id="Vector_25" d="M9.97665 2.53566C9.97665 2.53566 9.80116 4.21537 9.84629 4.66162C9.89141 5.10285 10.5533 6.39647 10.3978 7.75528C10.2424 9.11409 9.90645 9.33471 9.90645 9.33471C10.6285 9.67566 11.6263 9.15922 11.6263 9.15922C11.6263 9.15922 11.7867 7.60486 11.6564 7.06836C11.3756 6.42155 11.0396 4.70674 10.9243 4.21537C10.809 3.72399 10.9644 2.63093 10.9644 2.63093C10.804 2.4805 10.6435 2.42034 10.4981 2.40028C10.2023 2.36519 9.97164 2.52563 9.97164 2.52563" fill="white"/>
</g>
</mask>
<g mask="url(#mask12_1153_496)">
<g id="Group_15">
<path id="Vector_26" d="M12.3505 2.20053L8.71289 2.4364L9.19955 9.94171L12.8371 9.70584L12.3505 2.20053Z" fill="url(#paint12_linear_1153_496)"/>
</g>
</g>
</g>
<g id="Clip path group_14">
<mask id="mask13_1153_496" style="mask-type:luminance" maskUnits="userSpaceOnUse" x="11" y="0" width="5" height="7">
<g id="clippath-13">
<path id="Vector_27" d="M11.7215 6.98807C16.5099 4.5011 15.467 0.189026 15.467 0.189026C10.819 2.13949 11.7215 6.98807 11.7215 6.98807Z" fill="white"/>
</g>
</mask>
<g mask="url(#mask13_1153_496)">
<g id="Group_16">
<path id="Vector_28" d="M16.671 -1.32669L9.04443 0.0606689L10.5825 8.51598L18.2091 7.12863L16.671 -1.32669Z" fill="url(#paint13_linear_1153_496)"/>
</g>
</g>
</g>
<g id="Clip path group_15">
<mask id="mask14_1153_496" style="mask-type:luminance" maskUnits="userSpaceOnUse" x="6" y="2" width="5" height="5">
<g id="clippath-14">
<path id="Vector_29" d="M6.02539 2.68604C7.08837 6.23097 10.1269 6.08055 10.1269 6.08055C9.54525 3.32784 7.18865 2.80637 6.33626 2.71111C6.14071 2.69105 6.02539 2.69105 6.02539 2.69105" fill="white"/>
</g>
</mask>
<g mask="url(#mask14_1153_496)">
<g id="Group_17">
<path id="Vector_30" d="M6.02535 2.67255L5.63525 6.06476L10.0636 6.574L10.4536 3.18179L6.02535 2.67255Z" fill="url(#paint14_linear_1153_496)"/>
</g>
</g>
</g>
</g>
<g id="Group_18">
<path id="Vector_31" d="M22.4513 25.5101C22.4513 21.8799 25.555 18.9417 29.3205 18.9417C31.988 18.9417 34.2393 20.2503 35.5229 22.6169L32.4192 23.8354C31.6621 22.5718 30.559 21.9501 29.3155 21.9501C27.3149 21.9501 25.8709 23.4643 25.8709 25.5101C25.8709 27.5558 27.34 29.07 29.3406 29.07C30.5791 29.07 31.7323 28.5435 32.5346 27.2299L35.4527 28.3781C34.2343 30.86 32.2337 32.0985 29.3406 32.0985C25.5751 32.0985 22.4463 29.1352 22.4463 25.505L22.4513 25.5101Z" fill="black"/>
<path id="Vector_32" d="M46.4837 30.519C45.9572 31.231 44.438 32.0583 42.6479 32.0583C38.6518 32.0583 36.3052 29.095 36.3052 25.4649C36.3052 21.8347 38.6467 18.8714 42.6479 18.8714C44.4881 18.8714 45.8419 19.6085 46.4837 20.4558V19.1472H49.8832V31.7826H46.4837V30.519ZM43.1544 21.8798C40.9733 21.8798 39.6846 23.3941 39.6846 25.4649C39.6846 27.5357 41.0384 29.0248 43.1544 29.0248C45.2703 29.0248 46.6241 27.6711 46.6241 25.4649C46.6241 23.374 45.2903 21.8798 43.1544 21.8798Z" fill="black"/>
<path id="Vector_33" d="M55.5589 26.197V31.7776H52.1343V19.1422H55.5589V20.8169C56.8475 19.1171 58.9835 18.8865 59.876 18.9116V22.266C59.0486 22.1958 55.5589 22.3562 55.5589 26.197Z" fill="black"/>
<path id="Vector_34" d="M60.2472 25.5101C60.2472 20.3155 64.7498 18.9417 67.1164 18.9417C70.3555 18.9417 73.5946 21.1478 73.7099 25.2142C73.7099 26.1769 73.6397 26.7987 73.6397 26.7987H63.6668C64.0779 28.8644 66.4245 29.0951 67.1114 29.0951C69.0168 29.0951 69.9594 28.0622 70.3505 27.626L73.018 29.1653C72.5116 29.8522 70.8118 32.1085 67.1114 32.1085C64.6546 32.1085 60.2422 30.7046 60.2422 25.5151L60.2472 25.5101ZM63.762 24.3618H70.0797C69.9444 23.2136 68.8162 21.9501 67.0914 21.9501C65.1158 21.9501 63.8974 23.0782 63.762 24.3618Z" fill="black"/>
<path id="Vector_35" d="M74.7877 25.5101C74.7877 20.3155 79.2903 18.9417 81.657 18.9417C84.896 18.9417 88.1351 21.1478 88.2504 25.2142C88.2504 26.1769 88.1802 26.7987 88.1802 26.7987H78.2073C78.6185 28.8644 80.965 29.0951 81.652 29.0951C83.5573 29.0951 84.4999 28.0622 84.891 27.626L87.5585 29.1653C87.0521 29.8522 85.3523 32.1085 81.652 32.1085C79.1951 32.1085 74.7827 30.7046 74.7827 25.5151L74.7877 25.5101ZM78.3026 24.3618H84.6203C84.4849 23.2136 83.3567 21.9501 81.6319 21.9501C79.6564 21.9501 78.4379 23.0782 78.3026 24.3618Z" fill="black"/>
<path id="Vector_36" d="M93.305 26.197V31.7776H89.8804V19.1422H93.305V20.8169C94.5936 19.1171 96.7296 18.8865 97.6221 18.9116V22.266C96.7947 22.1958 93.305 22.3562 93.305 26.197Z" fill="black"/>
<path id="Vector_37" d="M118.741 24.3116V31.7776H115.272V24.3116C115.272 22.3612 114.143 21.7595 112.815 21.7595C111.872 21.7595 110.423 22.3361 110.403 24.7479V31.7776H106.933V24.3116C106.933 22.3612 105.785 21.7595 104.496 21.7595C103.438 21.7595 102.06 22.3361 102.06 25.0888L102.034 31.7725H98.6099V19.1371H102.034V20.2854C102.907 19.5032 104.331 18.9065 105.364 18.9065C107.294 18.9065 108.558 19.5483 109.43 20.6313C110.373 19.5734 111.797 18.9065 113.497 18.9065C117.127 18.9065 118.736 21.0224 118.736 24.3066L118.741 24.3116Z" fill="black"/>
<path id="Vector_38" d="M130.8 30.519C130.273 31.231 128.754 32.0583 126.964 32.0583C122.968 32.0583 120.621 29.095 120.621 25.4649C120.621 21.8347 122.963 18.8714 126.964 18.8714C128.804 18.8714 130.158 19.6085 130.8 20.4558V19.1472H134.199V31.7826H130.8V30.519ZM127.47 21.8798C125.289 21.8798 124.001 23.3941 124.001 25.4649C124.001 27.5357 125.354 29.0248 127.47 29.0248C129.586 29.0248 130.94 27.6711 130.94 25.4649C130.94 23.374 129.606 21.8798 127.47 21.8798Z" fill="black"/>
<path id="Vector_39" d="M148.284 24.3117V31.7776H144.769V24.3117C144.769 22.3612 143.666 21.7595 142.332 21.7595C141.389 21.7595 139.85 22.3362 139.92 25.0889V31.7726H136.496V19.1372H139.92V20.2654C140.773 19.413 142.172 18.9116 143.3 18.9116C146.955 18.9116 148.284 21.0275 148.284 24.3117Z" fill="black"/>
<path id="Vector_40" d="M157.154 36.5359C154.787 36.5359 152.721 35.8941 151.112 34.6306L152.786 32.1938C153.774 32.976 155.313 33.6428 157.083 33.5977C159.816 33.5275 160.137 31.8277 160.137 30.6544V30.4489C159.239 31.1859 158.071 31.577 156.597 31.577C152.461 31.577 149.958 28.7291 149.958 25.2593C149.958 21.7896 152.461 18.9166 156.597 18.9166C158.066 18.9166 159.239 19.3077 160.137 20.0447V19.1472H163.537V30.6595C163.537 34.2896 161.195 36.5409 157.149 36.5409L157.154 36.5359ZM160.277 25.2543C160.277 23.3039 158.763 21.8297 156.808 21.8297C154.692 21.8297 153.338 23.3239 153.338 25.2543C153.338 27.1847 154.627 28.6789 156.808 28.6789C158.758 28.6789 160.277 27.1847 160.277 25.2543Z" fill="black"/>
<path id="Vector_41" d="M165.261 25.485C165.261 21.8799 168.34 18.9166 172.105 18.9166C175.871 18.9166 179 21.8799 179 25.485C179 29.0901 175.876 32.0784 172.105 32.0784C168.335 32.0784 165.261 29.1352 165.261 25.485ZM168.641 25.485C168.641 27.5758 170.135 29.0901 172.11 29.0901C174.086 29.0901 175.58 27.5257 175.58 25.485C175.58 23.4443 174.066 21.925 172.11 21.925C170.155 21.925 168.641 23.4894 168.641 25.485Z" fill="black"/>
</g>
</g>
</g>
<defs>
<linearGradient id="paint0_linear_1153_496" x1="7.55854" y1="12.338" x2="16.5701" y2="13.3743" gradientUnits="userSpaceOnUse">
<stop stop-color="#FF7F02"/>
<stop offset="1" stop-color="#FF7702"/>
</linearGradient>
<linearGradient id="paint1_linear_1153_496" x1="1.39928" y1="16.4241" x2="19.2136" y2="18.4727" gradientUnits="userSpaceOnUse">
<stop stop-color="#FF7F02"/>
<stop offset="1" stop-color="#FF7702"/>
</linearGradient>
<linearGradient id="paint2_linear_1153_496" x1="0.287493" y1="19.3496" x2="10.4542" y2="20.5187" gradientUnits="userSpaceOnUse">
<stop stop-color="#FF7F02"/>
<stop offset="1" stop-color="#FF7702"/>
</linearGradient>
<linearGradient id="paint3_linear_1153_496" x1="10.1986" y1="24.9046" x2="19.68" y2="25.9949" gradientUnits="userSpaceOnUse">
<stop stop-color="#FF7F02"/>
<stop offset="1" stop-color="#FF7702"/>
</linearGradient>
<linearGradient id="paint4_linear_1153_496" x1="0.103115" y1="25.9733" x2="8.9385" y2="26.9894" gradientUnits="userSpaceOnUse">
<stop stop-color="#FF7F02"/>
<stop offset="1" stop-color="#FF7702"/>
</linearGradient>
<linearGradient id="paint5_linear_1153_496" x1="6.56628" y1="31.4998" x2="15.493" y2="32.5264" gradientUnits="userSpaceOnUse">
<stop stop-color="#FF7F02"/>
<stop offset="1" stop-color="#FF7702"/>
</linearGradient>
<linearGradient id="paint6_linear_1153_496" x1="3.40869" y1="32.9555" x2="9.3207" y2="33.6353" gradientUnits="userSpaceOnUse">
<stop stop-color="#FF7F02"/>
<stop offset="1" stop-color="#FF7702"/>
</linearGradient>
<linearGradient id="paint7_linear_1153_496" x1="6.62375" y1="9.96425" x2="13.8213" y2="10.7919" gradientUnits="userSpaceOnUse">
<stop stop-color="#FFF80A"/>
<stop offset="1" stop-color="#FF7702"/>
</linearGradient>
<linearGradient id="paint8_linear_1153_496" x1="3.00226" y1="14.5431" x2="19.2309" y2="16.4094" gradientUnits="userSpaceOnUse">
<stop stop-color="#FFF80A"/>
<stop offset="1" stop-color="#FF7702"/>
</linearGradient>
<linearGradient id="paint9_linear_1153_496" x1="0.386467" y1="20.7307" x2="20.0997" y2="22.9977" gradientUnits="userSpaceOnUse">
<stop stop-color="#FFF80A"/>
<stop offset="1" stop-color="#FF7702"/>
</linearGradient>
<linearGradient id="paint10_linear_1153_496" x1="0.922023" y1="27.5792" x2="19.0757" y2="29.6668" gradientUnits="userSpaceOnUse">
<stop stop-color="#FFF80A"/>
<stop offset="1" stop-color="#FF7702"/>
</linearGradient>
<linearGradient id="paint11_linear_1153_496" x1="4.20293" y1="34.6678" x2="15.0938" y2="35.9202" gradientUnits="userSpaceOnUse">
<stop stop-color="#FFF80A"/>
<stop offset="1" stop-color="#FF7702"/>
</linearGradient>
<linearGradient id="paint12_linear_1153_496" x1="11.4345" y1="8.71711" x2="11.0443" y2="2.69996" gradientUnits="userSpaceOnUse">
<stop stop-color="#BD6E29"/>
<stop offset="1" stop-color="#603815"/>
</linearGradient>
<linearGradient id="paint13_linear_1153_496" x1="10.732" y1="3.63729" x2="15.5594" y2="2.75914" gradientUnits="userSpaceOnUse">
<stop stop-color="#A9F80A"/>
<stop offset="1" stop-color="#079445"/>
</linearGradient>
<linearGradient id="paint14_linear_1153_496" x1="5.38525" y1="3.54663" x2="9.78217" y2="4.05226" gradientUnits="userSpaceOnUse">
<stop stop-color="#A9F80A"/>
<stop offset="1" stop-color="#079445"/>
</linearGradient>
</defs>
</svg>
